<svg width="140" height="31" viewBox="0 0 140 31" fill="none" xmlns="http://www.w3.org/2000/svg">
<rect width="140" height="31" rx="15.5" fill="#F4F4F4"/>
<path d="M97.249 19H96.2197L98.5325 12.573H99.6528L101.966 19H100.936L99.1193 13.7404H99.0691L97.249 19ZM97.4216 16.4832H100.761V17.2991H97.4216V16.4832ZM104.771 19.0973C104.305 19.0973 103.903 18.9916 103.566 18.7803C103.231 18.5669 102.974 18.273 102.794 17.8985C102.614 17.524 102.524 17.0951 102.524 16.6119C102.524 16.1223 102.616 15.6903 102.8 15.3158C102.985 14.9392 103.244 14.6453 103.579 14.434C103.913 14.2227 104.308 14.117 104.762 14.117C105.128 14.117 105.454 14.185 105.741 14.321C106.028 14.4549 106.259 14.6432 106.434 14.8859C106.612 15.1285 106.718 15.412 106.751 15.7363H105.838C105.788 15.5104 105.673 15.3158 105.493 15.1526C105.315 14.9894 105.077 14.9078 104.777 14.9078C104.516 14.9078 104.287 14.9769 104.09 15.1149C103.896 15.2509 103.744 15.4455 103.635 15.6986C103.526 15.9497 103.472 16.2468 103.472 16.5899C103.472 16.9414 103.525 17.2447 103.632 17.5C103.739 17.7552 103.889 17.9529 104.084 18.0931C104.281 18.2332 104.512 18.3033 104.777 18.3033C104.955 18.3033 105.116 18.2709 105.261 18.206C105.407 18.1391 105.53 18.0439 105.628 17.9205C105.728 17.797 105.798 17.6485 105.838 17.4748H106.751C106.718 17.7866 106.616 18.0648 106.447 18.3096C106.278 18.5544 106.051 18.7469 105.766 18.887C105.484 19.0272 105.152 19.0973 104.771 19.0973ZM110.005 14.1798V14.9329H107.372V14.1798H110.005ZM108.078 13.0249H109.016V17.5847C109.016 17.7667 109.044 17.9037 109.098 17.9958C109.152 18.0857 109.222 18.1475 109.308 18.1809C109.396 18.2123 109.491 18.228 109.594 18.228C109.669 18.228 109.735 18.2228 109.791 18.2123C109.848 18.2019 109.892 18.1935 109.923 18.1872L110.093 18.9623C110.038 18.9833 109.961 19.0042 109.861 19.0251C109.76 19.0481 109.635 19.0607 109.484 19.0628C109.237 19.0669 109.007 19.023 108.794 18.931C108.58 18.8389 108.408 18.6966 108.276 18.5042C108.144 18.3117 108.078 18.0701 108.078 17.7793V13.0249ZM111.043 19V14.1798H111.981V19H111.043ZM111.517 13.436C111.354 13.436 111.213 13.3816 111.096 13.2728C110.981 13.162 110.924 13.0302 110.924 12.8774C110.924 12.7226 110.981 12.5908 111.096 12.482C111.213 12.3711 111.354 12.3157 111.517 12.3157C111.68 12.3157 111.819 12.3711 111.934 12.482C112.051 12.5908 112.11 12.7226 112.11 12.8774C112.11 13.0302 112.051 13.162 111.934 13.2728C111.819 13.3816 111.68 13.436 111.517 13.436ZM117.367 14.1798L115.619 19H114.615L112.864 14.1798H113.871L115.092 17.8891H115.142L116.36 14.1798H117.367ZM120.162 19.0973C119.687 19.0973 119.278 18.9958 118.935 18.7929C118.594 18.5879 118.331 18.3002 118.145 17.9299C117.96 17.5575 117.868 17.1213 117.868 16.6213C117.868 16.1275 117.96 15.6924 118.145 15.3158C118.331 14.9392 118.59 14.6453 118.923 14.434C119.258 14.2227 119.649 14.117 120.096 14.117C120.368 14.117 120.632 14.162 120.887 14.2519C121.143 14.3419 121.372 14.4831 121.575 14.6756C121.777 14.8681 121.938 15.1181 122.055 15.4256C122.172 15.7311 122.23 16.1024 122.23 16.5397V16.8723H118.399V16.1694H121.311C121.311 15.9225 121.261 15.7039 121.16 15.5135C121.06 15.321 120.919 15.1693 120.737 15.0585C120.557 14.9476 120.345 14.8921 120.103 14.8921C119.839 14.8921 119.609 14.957 119.412 15.0867C119.218 15.2143 119.067 15.3817 118.96 15.5888C118.856 15.7938 118.804 16.0166 118.804 16.2572V16.8064C118.804 17.1286 118.86 17.4027 118.973 17.6286C119.088 17.8546 119.248 18.0272 119.453 18.1464C119.658 18.2636 119.898 18.3222 120.172 18.3222C120.35 18.3222 120.512 18.297 120.658 18.2468C120.805 18.1945 120.931 18.1171 121.038 18.0146C121.145 17.9121 121.226 17.7855 121.283 17.6349L122.171 17.7949C122.1 18.0565 121.972 18.2855 121.788 18.4822C121.606 18.6768 121.377 18.8284 121.101 18.9372C120.827 19.0439 120.514 19.0973 120.162 19.0973Z" fill="#C13A3A"/>
<path d="M33.249 19H32.2197L34.5325 12.573H35.6528L37.9657 19H36.9363L35.1193 13.7404H35.0691L33.249 19ZM33.4216 16.4832H36.7606V17.2991H33.4216V16.4832ZM40.7712 19.0973C40.3046 19.0973 39.903 18.9916 39.5661 18.7803C39.2314 18.5669 38.9741 18.273 38.7941 17.8985C38.6142 17.524 38.5243 17.0951 38.5243 16.6119C38.5243 16.1223 38.6163 15.6903 38.8004 15.3158C38.9845 14.9392 39.2439 14.6453 39.5787 14.434C39.9134 14.2227 40.3078 14.117 40.7618 14.117C41.1279 14.117 41.4543 14.185 41.7409 14.321C42.0275 14.4549 42.2587 14.6432 42.4344 14.8859C42.6123 15.1285 42.7179 15.412 42.7514 15.7363H41.8382C41.788 15.5104 41.6729 15.3158 41.493 15.1526C41.3151 14.9894 41.0766 14.9078 40.7775 14.9078C40.516 14.9078 40.2869 14.9769 40.0902 15.1149C39.8956 15.2509 39.744 15.4455 39.6352 15.6986C39.5264 15.9497 39.472 16.2468 39.472 16.5899C39.472 16.9414 39.5253 17.2447 39.632 17.5C39.7387 17.7552 39.8894 17.9529 40.0839 18.0931C40.2806 18.2332 40.5118 18.3033 40.7775 18.3033C40.9553 18.3033 41.1164 18.2709 41.2607 18.206C41.4072 18.1391 41.5296 18.0439 41.6279 17.9205C41.7283 17.797 41.7984 17.6485 41.8382 17.4748H42.7514C42.7179 17.7866 42.6164 18.0648 42.447 18.3096C42.2775 18.5544 42.0505 18.7469 41.766 18.887C41.4836 19.0272 41.152 19.0973 40.7712 19.0973ZM46.0049 14.1798V14.9329H43.3719V14.1798H46.0049ZM44.078 13.0249H45.0164V17.5847C45.0164 17.7667 45.0435 17.9037 45.0979 17.9958C45.1523 18.0857 45.2224 18.1475 45.3082 18.1809C45.3961 18.2123 45.4913 18.228 45.5938 18.228C45.6691 18.228 45.735 18.2228 45.7915 18.2123C45.848 18.2019 45.8919 18.1935 45.9233 18.1872L46.0927 18.9623C46.0383 18.9833 45.9609 19.0042 45.8605 19.0251C45.7601 19.0481 45.6346 19.0607 45.4839 19.0628C45.2371 19.0669 45.0069 19.023 44.7935 18.931C44.5801 18.8389 44.4075 18.6966 44.2757 18.5042C44.1439 18.3117 44.078 18.0701 44.078 17.7793V13.0249ZM47.0428 19V14.1798H47.9811V19H47.0428ZM47.5167 13.436C47.3535 13.436 47.2133 13.3816 47.0962 13.2728C46.9811 13.162 46.9236 13.0302 46.9236 12.8774C46.9236 12.7226 46.9811 12.5908 47.0962 12.482C47.2133 12.3711 47.3535 12.3157 47.5167 12.3157C47.6799 12.3157 47.819 12.3711 47.9341 12.482C48.0512 12.5908 48.1098 12.7226 48.1098 12.8774C48.1098 13.0302 48.0512 13.162 47.9341 13.2728C47.819 13.3816 47.6799 13.436 47.5167 13.436ZM53.367 14.1798L51.6191 19H50.6148L48.8637 14.1798H49.8711L51.0919 17.8891H51.1421L52.3597 14.1798H53.367ZM56.1624 19.0973C55.6874 19.0973 55.2784 18.9958 54.9353 18.7929C54.5943 18.5879 54.3307 18.3002 54.1445 17.9299C53.9604 17.5575 53.8683 17.1213 53.8683 16.6213C53.8683 16.1275 53.9604 15.6924 54.1445 15.3158C54.3307 14.9392 54.5901 14.6453 54.9228 14.434C55.2575 14.2227 55.6487 14.117 56.0965 14.117C56.3684 14.117 56.632 14.162 56.8873 14.2519C57.1425 14.3419 57.3716 14.4831 57.5745 14.6756C57.7775 14.8681 57.9375 15.1181 58.0547 15.4256C58.1718 15.7311 58.2304 16.1024 58.2304 16.5397V16.8723H54.3987V16.1694H57.3109C57.3109 15.9225 57.2607 15.7039 57.1603 15.5135C57.0599 15.321 56.9187 15.1693 56.7366 15.0585C56.5567 14.9476 56.3454 14.8921 56.1027 14.8921C55.8391 14.8921 55.609 14.957 55.4123 15.0867C55.2178 15.2143 55.0671 15.3817 54.9604 15.5888C54.8558 15.7938 54.8035 16.0166 54.8035 16.2572V16.8064C54.8035 17.1286 54.86 17.4027 54.973 17.6286C55.0881 17.8546 55.2481 18.0272 55.4531 18.1464C55.6582 18.2636 55.8977 18.3222 56.1718 18.3222C56.3496 18.3222 56.5117 18.297 56.6582 18.2468C56.8046 18.1945 56.9312 18.1171 57.0379 18.0146C57.1446 17.9121 57.2262 17.7855 57.2827 17.6349L58.1708 17.7949C58.0997 18.0565 57.972 18.2855 57.7879 18.4822C57.6059 18.6768 57.3768 18.8284 57.1007 18.9372C56.8266 19.0439 56.5138 19.0973 56.1624 19.0973Z" fill="#4E63ED"/>
<path d="M25.2051 12.0625C25.7901 13.0737 26.1249 14.2478 26.1249 15.5C26.1249 16.7522 25.7901 17.9262 25.2051 18.9375M23.2039 13.625C23.4738 14.1933 23.6249 14.829 23.6249 15.5C23.6249 16.171 23.4738 16.8067 23.2039 17.375M14.875 18.625L18 15.5M18 15.5L21.125 12.375L18 9.25V15.5ZM18 15.5V21.75L21.125 18.625L18 15.5ZM18 15.5L14.875 12.375" stroke="#4E63ED" stroke-width="1.25" stroke-linecap="round" stroke-linejoin="round"/>
<path d="M79.1666 17.6667V13.3334M85.6666 11.1667H81.3333M87.8333 13.3334V17.6667M85.6666 19.8334H81.3333" stroke="#C13A3A" stroke-width="1.44444"/>
<rect x="77" y="9" width="4.33333" height="4.33333" rx="1.44444" stroke="#C13A3A" stroke-width="1.44444"/>
<rect x="77" y="17.6667" width="4.33333" height="4.33333" rx="1.44444" stroke="#C13A3A" stroke-width="1.44444"/>
<rect x="85.6666" y="17.6667" width="4.33333" height="4.33333" rx="1.44444" stroke="#C13A3A" stroke-width="1.44444"/>
<rect x="85.6666" y="9" width="4.33333" height="4.33333" rx="1.44444" stroke="#C13A3A" stroke-width="1.44444"/>
</svg>
