<?xml version="1.0" ?>
<!-- Uploaded to: SVG Repo, www.svgrepo.com, Generator: SVG Repo Mixer Tools -->
<svg fill="#000000" width="800px" height="800px" viewBox="0 0 64 64" xmlns="http://www.w3.org/2000/svg">
<g id="Handcuffs">
<path d="M21.34,31.87a1,1,0,0,0,1-1V29.28a1,1,0,0,0-2,0v1.59A1,1,0,0,0,21.34,31.87Z"/>
<path d="M48.45,29.59,48.91,28a2.79,2.79,0,0,0-2.67-3.57h-.81V15.11A8.12,8.12,0,0,0,37.32,7H26.7a8.12,8.12,0,0,0-8.12,8.11v9.33h-.82A2.79,2.79,0,0,0,15.09,28l.46,1.58A14.3,14.3,0,0,0,11.21,52.8,14.3,14.3,0,0,0,32,52.22,14.31,14.31,0,1,0,48.45,29.59ZM20.58,15.11A6.12,6.12,0,0,1,26.7,9H37.32a6.12,6.12,0,0,1,6.11,6.11v9.33H41.91V15.11a4.6,4.6,0,0,0-4.59-4.59H26.7a4.6,4.6,0,0,0-4.6,4.59v9.33H20.58ZM36.4,28l.46,1.58A14.38,14.38,0,0,0,32,33.14a14.35,14.35,0,0,0-4.85-3.56L27.6,28a2.79,2.79,0,0,0-2.68-3.57H24.1V15.11a2.6,2.6,0,0,1,2.6-2.59H37.32a2.59,2.59,0,0,1,2.59,2.59v9.33h-.83A2.79,2.79,0,0,0,36.4,28ZM9,42.67a12.39,12.39,0,0,1,8.1-11.56,1,1,0,0,0,.61-1.22L17,27.45a.83.83,0,0,1,.12-.7.78.78,0,0,1,.63-.31h7.16a.78.78,0,0,1,.63.31.8.8,0,0,1,.13.7L25,29.89a1,1,0,0,0,.62,1.22,12.41,12.41,0,0,1,5.18,3.62,14.24,14.24,0,0,0-1.68,3.41,9,9,0,0,0-7.74-4.45h0A9,9,0,0,0,18.4,51.14a3.61,3.61,0,0,0-.74,2.18,3.53,3.53,0,0,0,.22,1.18A12.31,12.31,0,0,1,9,42.67Zm12.33,7h0a7,7,0,1,1,0-14h0a7,7,0,1,1,0,14Zm0,5.36a1.68,1.68,0,1,1,0-3.36,9,9,0,0,0,7.73-4.43,14.21,14.21,0,0,0,1.67,3.41A12.23,12.23,0,0,1,21.34,55Zm30-3.61a12.3,12.3,0,0,1-5.26,3.11,3.53,3.53,0,0,0,.22-1.18,3.61,3.61,0,0,0-.74-2.18,9,9,0,0,0-2.94-17.45h0a9,9,0,1,0,0,18,1.68,1.68,0,1,1,0,3.36,12.32,12.32,0,0,1-4.24-23.89A1,1,0,0,0,39,29.89l-.72-2.44a.8.8,0,0,1,.13-.7.78.78,0,0,1,.63-.31h7.16a.78.78,0,0,1,.63.31.83.83,0,0,1,.12.7l-.71,2.44a1,1,0,0,0,.61,1.22,12.31,12.31,0,0,1,4.49,20.28Zm-15.7-8.73a7,7,0,0,1,7-7h0a7,7,0,1,1,0,14h0A7,7,0,0,1,35.68,42.66Z"/>
<path d="M42.66,28.28a1,1,0,0,0-1,1v1.59a1,1,0,1,0,2,0V29.28A1,1,0,0,0,42.66,28.28Z"/>
</g>
</svg>