<?xml version="1.0" encoding="iso-8859-1"?>
<!-- Uploaded to: SVG Repo, www.svgrepo.com, Generator: SVG Repo Mixer Tools -->
<!DOCTYPE svg PUBLIC "-//W3C//DTD SVG 1.1//EN" "http://www.w3.org/Graphics/SVG/1.1/DTD/svg11.dtd">
<svg fill="#000000" height="800px" width="800px" version="1.1" id="Capa_1" xmlns="http://www.w3.org/2000/svg" xmlns:xlink="http://www.w3.org/1999/xlink" 
	 viewBox="0 0 297 297" xml:space="preserve">
<g>
	<path d="M246.758,59.38h-15.944V43.435c0-5.597-4.538-10.136-10.136-10.136s-10.136,4.538-10.136,10.136V59.38h-15.944
		c-5.597,0-10.136,4.538-10.136,10.136s4.538,10.136,10.136,10.136h15.944v15.944c0,5.597,4.538,10.136,10.136,10.136
		s10.136-4.538,10.136-10.136V79.652h15.944c5.597,0,10.136-4.538,10.136-10.136S252.355,59.38,246.758,59.38z"/>
	<path d="M87.297,152.371l24.848-24.718c3.958-3.958,3.958-10.376,0-14.335L52.482,53.655c-3.959-3.957-10.375-3.957-14.335,0
		L14.282,77.521C-1.324,93.126-4.25,118.726,6.043,149.604c9.503,28.509,29.381,58.854,55.97,85.443
		c39.615,39.614,84.743,61.892,119.066,61.892c15.54,0,28.866-4.568,38.46-14.161l23.866-23.866c3.958-3.958,3.958-10.376,0-14.335
		l-59.663-59.663c-3.959-3.957-10.375-3.957-14.335,0l-24.719,24.849c-5.216,2.623-22.018-1.896-38.758-18.636
		C89.191,174.388,84.676,157.585,87.297,152.371z M176.575,206.417l45.329,45.329l-9.531,9.531l-45.329-45.329L176.575,206.417z
		 M45.315,75.157l45.329,45.329l-9.531,9.531L35.784,84.688L45.315,75.157z M153.867,271.786
		c-25.582-8.528-53.113-26.666-77.52-51.074c-24.408-24.407-42.545-51.938-51.073-77.52c-5.758-17.272-6.467-32.162-2.276-42.621
		l45.161,45.161c-5.748,15.675,3.044,39.335,23.437,59.73c16.284,16.283,34.654,25.18,49.376,25.18c3.72,0,7.205-0.57,10.366-1.73
		l45.149,45.15C186.03,278.252,171.139,277.544,153.867,271.786z"/>
	<path d="M266.649,0.06h-95.506c-16.736,0-30.351,13.615-30.351,30.351v80.401c0,16.736,13.615,30.351,30.351,30.351h14.961v20.073
		c0,3.84,2.169,7.348,5.603,9.066c1.434,0.718,2.986,1.07,4.531,1.07c2.154,0,4.294-0.686,6.082-2.027l37.575-28.181h26.753
		c16.736,0,30.351-13.615,30.351-30.351V30.411C297,13.675,283.385,0.06,266.649,0.06z M276.728,110.812
		c0,5.558-4.521,10.079-10.079,10.079h-30.131c-2.193,0-4.327,0.712-6.081,2.027l-24.061,18.045v-9.937
		c0-5.597-4.538-10.136-10.136-10.136h-25.097c-5.558,0-10.079-4.521-10.079-10.079V30.411c0-5.558,4.521-10.079,10.079-10.079
		h95.506c5.558,0,10.079,4.521,10.079,10.079V110.812z"/>
</g>
</svg>