<svg width="27" height="40" viewBox="0 0 27 40" fill="none" xmlns="http://www.w3.org/2000/svg">
<path d="M15.7845 7.72679C16.7987 7.15582 18.0027 8.079 17.7145 9.20667L15.3038 18.638C15.0689 19.5573 13.9708 19.9373 13.2179 19.3599L7.14579 14.704C6.39282 14.1266 6.47491 12.9676 7.30174 12.5022L15.7845 7.72679Z" fill="#292929"/>
<circle cx="13.1556" cy="13.1556" r="12.7444" stroke="#7C7C7C" stroke-width="0.822222"/>
<path d="M8.13464 32.6712V37.9556H7.40184L4.71577 34.08H4.66675V37.9556H3.86944V32.6712H4.6074L7.29605 36.5519H7.34507V32.6712H8.13464ZM13.888 35.3134C13.888 35.8776 13.7848 36.3627 13.5784 36.7686C13.3719 37.1729 13.089 37.4842 12.7295 37.7027C12.3717 37.9194 11.9648 38.0278 11.509 38.0278C11.0514 38.0278 10.6429 37.9194 10.2834 37.7027C9.92556 37.4842 9.64345 37.172 9.43703 36.7661C9.23061 36.3601 9.1274 35.8759 9.1274 35.3134C9.1274 34.7491 9.23061 34.2649 9.43703 33.8607C9.64345 33.4547 9.92556 33.1434 10.2834 32.9266C10.6429 32.7081 11.0514 32.5989 11.509 32.5989C11.9648 32.5989 12.3717 32.7081 12.7295 32.9266C13.089 33.1434 13.3719 33.4547 13.5784 33.8607C13.7848 34.2649 13.888 34.7491 13.888 35.3134ZM13.0984 35.3134C13.0984 34.8833 13.0288 34.5212 12.8894 34.2271C12.7518 33.9312 12.5626 33.7076 12.3218 33.5562C12.0827 33.4031 11.8117 33.3266 11.509 33.3266C11.2045 33.3266 10.9327 33.4031 10.6936 33.5562C10.4545 33.7076 10.2653 33.9312 10.126 34.2271C9.98835 34.5212 9.91954 34.8833 9.91954 35.3134C9.91954 35.7434 9.98835 36.1064 10.126 36.4022C10.2653 36.6964 10.4545 36.92 10.6936 37.0731C10.9327 37.2245 11.2045 37.3002 11.509 37.3002C11.8117 37.3002 12.0827 37.2245 12.3218 37.0731C12.5626 36.92 12.7518 36.6964 12.8894 36.4022C13.0288 36.1064 13.0984 35.7434 13.0984 35.3134ZM15.8529 37.9556L14.3873 32.6712H15.2259L16.2554 36.7635H16.3044L17.3752 32.6712H18.2061L19.2769 36.7661H19.3259L20.3529 32.6712H21.194L19.7259 37.9556H18.9234L17.8113 33.9974H17.77L16.6579 37.9556H15.8529Z" fill="#6D6D6D"/>
</svg>
