<?xml version="1.0" encoding="utf-8"?>
<!-- Uploaded to: SVG Repo, www.svgrepo.com, Generator: SVG Repo Mixer Tools -->
<svg width="800px" height="800px" viewBox="0 0 1024 1024" class="icon"  version="1.1" xmlns="http://www.w3.org/2000/svg"><path d="M213.333333 896h597.333334c46.933333 0 85.333333-38.4 85.333333-85.333333V334.933333c0-34.133333-21.333333-66.133333-55.466667-78.933333L512 128 183.466667 256C149.333333 268.8 128 300.8 128 334.933333V810.666667c0 46.933333 38.4 85.333333 85.333333 85.333333z" fill="#3F51B5" /><path d="M725.333333 362.666667l-42.666666-42.666667c-34.133333 34.133333-136.533333 36.266667-170.666667 0-36.266667 36.266667-138.666667 34.133333-170.666667 0l-42.666666 42.666667s25.6 44.8 25.6 85.333333c0 64-25.6 89.6-25.6 172.8 0 155.733333 181.333333 187.733333 213.333333 211.2 34.133333-23.466667 213.333333-55.466667 213.333333-211.2 0-85.333333-25.6-106.666667-25.6-172.8 0-38.4 25.6-85.333333 25.6-85.333333z" fill="#FFC107" /><path d="M529.066667 765.866667c-6.4 2.133333-10.666667 4.266667-14.933334 6.4-4.266667-2.133333-10.666667-4.266667-17.066666-6.4-74.666667-29.866667-142.933333-64-142.933334-142.933334 0-38.4 6.4-61.866667 12.8-85.333333s12.8-51.2 12.8-87.466667c0-19.2-4.266667-38.4-8.533333-55.466666 23.466667 6.4 44.8 6.4 57.6 6.4 17.066667 0 53.333333-2.133333 85.333333-17.066667 32 14.933333 68.266667 17.066667 85.333334 17.066667 12.8 0 34.133333 0 57.6-6.4-4.266667 17.066667-8.533333 36.266667-8.533334 55.466666 0 38.4 6.4 66.133333 12.8 89.6s12.8 46.933333 12.8 83.2c-4.266667 78.933333-70.4 113.066667-145.066666 142.933334z" fill="#E09E00" /><path d="M578.133333 667.733333L512 627.2l-66.133333 38.4 14.933333-74.666667-57.6-51.2 76.8-6.4 32-70.4 32 70.4 76.8 6.4-57.6 51.2z" fill="#FFEB3B" /></svg>