<svg width="220" height="82" viewBox="0 0 220 82" fill="none" xmlns="http://www.w3.org/2000/svg">
<rect x="43.4289" y="18.7358" width="176.125" height="42.9318" rx="8.14988" fill="#A6FFB3" stroke="#00BE23" stroke-width="0.857882"/>
<path d="M55.8278 20.3322C56.2083 20.0975 56.703 20.1926 56.9567 20.5605C58.2885 22.4884 61.8336 28.9128 60.4891 41.1527C59.614 49.0991 55.1112 60.5716 53.5828 64.288C53.5317 64.4134 53.451 64.5245 53.3475 64.6119C53.244 64.6992 53.1209 64.7602 52.9887 64.7895C52.8565 64.8188 52.7192 64.8156 52.5885 64.7802C52.4578 64.7447 52.3376 64.6781 52.2383 64.586C50.7036 63.1845 46.9555 60.8189 40.1316 62.4044C37.969 62.9054 31.2212 69.6659 25.7989 63.5777C22.4504 59.8169 24.892 57.6036 24.9174 52.1939C24.9491 45.2305 17.9413 43.0933 15.6518 41.9518C15.0684 41.66 15.024 40.8546 15.5694 40.4995C18.2266 38.7745 21.9557 37.9627 26.6424 34.2336C32.5911 29.5089 32.6418 25.0823 33.8595 23.5475C34.4746 22.7738 39.3198 20.5985 39.3198 20.5985C39.3198 20.5985 42.7064 21.4991 42.8713 21.5625L48.9151 24.2324C49.1561 24.3212 49.4288 24.2959 49.6508 24.1563L55.8278 20.3322Z" fill="url(#paint0_linear_92_77)"/>
<path d="M57.3562 46.7335C60.7872 36.1108 58.3012 27.3844 58.3012 27.3844C58.3012 27.3844 48.2302 30.9422 48.2049 31.3544C48.1858 31.7666 41.66 47.2789 41.66 47.2789C41.66 47.2789 36.9099 60.1277 30.8851 66.1017C35.2039 65.6324 38.6983 62.7342 40.1316 62.4044C44.628 61.358 47.78 62.0302 49.8538 63.0132C50.989 61.2058 54.9463 54.2043 57.3562 46.7335Z" fill="url(#paint1_radial_92_77)"/>
<path d="M43.106 27.6634L39.8906 26.2048C39.8906 26.2048 34.7917 37.8422 32.2106 41.8566C29.6231 45.871 24.9174 52.1939 24.9174 52.1939C24.9237 57.6036 22.444 59.8169 25.7989 63.5777C26.0209 63.8313 26.2555 64.0533 26.4838 64.2626C28.6337 61.6814 32.1852 56.6396 34.8488 52.8598C42.0469 42.643 43.106 27.6634 43.106 27.6634Z" fill="url(#paint2_linear_92_77)"/>
<path d="M65.6642 15.4489C65.0236 13.7049 61.8907 8.70111 61.8907 8.70111L58.2505 10.4515L59.6964 16.7046L53.1833 22.1269C50.4904 21.5045 47.7046 21.3926 44.9705 21.7972C43.106 21.6576 37.8041 21.7211 35.8001 26.598L32.8955 33.5107L30.5427 34.3288C29.8894 35.6923 32.033 36.9226 33.3965 37.5695C34.76 38.2164 35.9333 37.7154 37.0495 36.2757C37.7154 35.4132 39.2628 32.997 40.3916 31.2022C40.6453 33.1238 40.8229 35.4703 40.8356 38.3242L46.1184 40.8673L52.5491 41.14C54.8956 35.8318 56.1069 31.792 56.7221 28.9318C58.8466 26.5346 64.3514 20.3068 65.0617 19.3175C65.9369 18.0998 66.3047 17.1929 65.6642 15.4489Z" fill="url(#paint3_linear_92_77)"/>
<path d="M26.3887 24.4925C26.7628 23.8075 27.9361 23.3382 28.7796 23.0782C29.2933 22.9197 29.8387 23.186 30.0416 23.6744L31.291 26.6677C31.4432 27.0356 31.3734 27.4605 31.107 27.7649L29.9338 29.084C30.365 29.6675 30.9041 30.1368 31.5256 30.5109C32.5847 31.1515 33.6438 31.1261 33.7516 31.2149C35.0961 32.2994 36.0981 33.5677 35.3117 35.6479C34.5317 37.7154 31.8427 37.0812 31.8427 37.0812C31.8427 37.0812 29.084 35.1405 27.3082 30.9295C26.7311 29.5787 25.6086 25.9131 26.3887 24.4925Z" fill="url(#paint4_linear_92_77)"/>
<path d="M33.4092 52.5427C33.4092 52.5427 29.8958 55.8088 29.6358 57.2738C29.2045 59.7028 31.2593 61.9478 32.3247 61.079C34.6395 59.2018 35.2674 56.8743 36.4153 55.1873C37.5568 53.5004 34.9313 51.0017 33.4092 52.5427Z" fill="url(#paint5_linear_92_77)"/>
<path d="M45.2813 42.3449L45.1227 42.7762C44.8373 41.7234 44.1651 40.7595 43.2518 40.2711C43.2518 40.2711 39.5862 39.0598 38.6666 40.7658C38.6666 40.7658 34.2717 47.6912 33.5741 49.6191C32.8701 51.5471 32.8955 53.1199 34.5444 54.1409C35.8762 54.959 37.6646 54.5658 39.3008 52.7076C40.0365 51.8705 41.7361 49.3147 43.0299 47.3297C43.2328 47.0126 43.7211 47.2599 43.588 47.6151L35.9016 67.8521L39.3325 70.0337C39.3325 70.0337 49.543 53.716 51.046 50.5958C52.5491 47.4756 53.0818 42.8967 53.0818 42.8967L45.2813 42.3449Z" fill="url(#paint6_linear_92_77)"/>
<path opacity="0.4" d="M38.8379 40.5185L40.1063 38.451C40.2838 38.0515 40.7405 37.8866 41.1083 38.0959C45.3066 40.4931 47.539 41.1337 52.3145 40.8483C52.752 40.8229 53.1135 41.2161 53.0818 41.6917L52.9169 43.9177C52.9169 43.9177 51.1666 44.9071 45.8203 43.7719C42.0279 42.9665 38.8379 40.5185 38.8379 40.5185Z" fill="#212121"/>
<path d="M52.6887 43.7212C47.3108 44.0065 43.9432 43.0362 39.2502 40.5439C38.8824 40.3473 38.7365 39.897 38.9141 39.5165L39.6688 37.9183C39.8591 37.5188 40.3474 37.3539 40.7406 37.5632C45.237 39.9604 47.6279 40.5946 52.7522 40.3155C53.2215 40.2902 53.6147 40.6897 53.5703 41.159L53.4244 42.9982C53.3927 43.3914 53.0756 43.7021 52.6887 43.7212Z" fill="url(#paint7_linear_92_77)"/>
<path d="M47.9258 42.4845L46.4608 43.4548C46.1691 43.645 45.7823 43.5689 45.592 43.2772L44.6217 41.8122C44.576 41.7436 44.5443 41.6666 44.5285 41.5857C44.5127 41.5048 44.5131 41.4216 44.5296 41.3408C44.5461 41.2601 44.5784 41.1834 44.6247 41.1151C44.671 41.0469 44.7303 40.9886 44.7993 40.9434L46.2642 39.9731C46.3329 39.9274 46.4098 39.8957 46.4907 39.8799C46.5716 39.8641 46.6549 39.8644 46.7356 39.8809C46.8164 39.8974 46.8931 39.9298 46.9613 39.9761C47.0295 40.0224 47.0879 40.0817 47.1331 40.1506L48.1034 41.6156C48.2937 41.901 48.2176 42.2879 47.9258 42.4845Z" fill="#FDD835"/>
<path d="M44.6978 28.5513C45.5096 28.1962 47.019 27.7015 49.1942 27.619C49.3337 27.6127 49.4669 27.6127 49.5938 27.6127C51.5534 27.6127 52.752 28.1454 53.3672 28.5196L48.9659 33.2507L44.6978 28.5513Z" fill="#E53935"/>
<path d="M49.6001 28.2723C50.7988 28.2723 51.6803 28.4879 52.2954 28.7225L48.9786 32.2867L45.8394 28.8303C46.6448 28.5767 47.78 28.3293 49.2196 28.2786C49.3528 28.2722 49.4733 28.2723 49.6001 28.2723ZM49.6001 26.9595C49.4606 26.9595 49.3211 26.9595 49.1752 26.9658C45.5159 27.099 43.6387 28.361 43.6387 28.361L48.9659 34.2273L54.3439 28.4435C54.3375 28.4435 52.955 26.9595 49.6001 26.9595Z" fill="#FDD835"/>
<path opacity="0.42" d="M43.6387 28.361C43.6387 28.361 45.5159 27.099 49.1752 26.9658C52.8345 26.8326 54.3439 28.4435 54.3439 28.4435L48.9659 34.2273L43.6387 28.361Z" fill="url(#paint8_linear_92_77)"/>
<path d="M36.6943 61.8971C36.6943 61.8971 35.6733 68.0233 33.1555 72.0314C31.9252 73.6613 29.9211 74.9994 28.8811 77.7962C28.4054 79.0836 31.1832 80.3076 33.3458 79.1217C34.6459 78.4051 36.6119 74.0291 36.6119 74.0291C38.3495 70.8709 43.5245 65.8354 43.5245 65.8354C42.5289 61.2121 36.6943 61.8971 36.6943 61.8971Z" fill="url(#paint9_linear_92_77)"/>
<path d="M33.8658 23.5412C33.8658 23.5412 37.4744 18.9877 43.9178 20.2878C48.7059 21.2518 47.6976 24.3276 47.6976 24.3276C47.6976 24.3276 45.2813 24.3466 43.106 23.8456C40.9054 23.3383 38.9457 22.3172 37.7788 22.4377L33.8658 23.5412Z" fill="#ED4132"/>
<path d="M47.6975 24.3339C47.6975 24.3339 47.9956 21.22 50.1011 20.4654C52.2066 19.7107 56.925 19.0131 56.925 19.0131C56.925 19.0131 55.4474 21.905 54.3058 22.8182C51.8959 24.7398 47.6975 24.3339 47.6975 24.3339Z" fill="#ED4132"/>
<path opacity="0.4" d="M36.2314 25.7038C36.2314 25.7038 38.2988 23.8393 41.4444 24.5939C45.9725 25.6784 47.6975 24.3339 47.6975 24.3339C47.6975 24.3339 51.027 25.5325 54.179 24.0168C56.3416 22.9768 56.9314 19.0131 56.9314 19.0131L56.1893 19.8502C56.1893 19.8502 53.4116 22.8753 50.6465 23.6934C48.6234 24.2959 47.7039 24.3339 47.7039 24.3339C47.7039 24.3339 40.2458 21.7781 38.5461 22.4884C36.8465 23.1987 36.2314 25.7038 36.2314 25.7038Z" fill="#212121"/>
<path d="M58.7768 15.804C58.6881 15.2142 57.5655 6.20239 55.46 5.73309C55.46 5.73309 54.3439 5.74577 53.2023 5.84724C52.3018 5.87895 51.7056 5.63796 51.5344 5.07353C51.3251 4.64228 51.5407 3.67831 51.9022 2.60018C52.2637 1.51572 52.9106 1.38254 53.4243 1.36985C54.42 1.34448 56.1196 2.35285 58.4534 4.36958C62.9435 8.25083 65.3978 14.1044 65.3978 14.1044C65.3154 14.1044 62.4234 18.0554 58.7768 15.804Z" fill="url(#paint10_linear_92_77)"/>
<path d="M53.8238 18.5184C53.5828 18.1188 53.8555 17.6876 54.3185 17.1549C55.0605 16.305 55.8278 14.3771 54.9717 12.4809C54.978 12.4682 54.8068 12.1511 54.8068 12.1384H54.4834C54.3819 12.1257 50.8304 12.2589 47.279 12.4048C43.7275 12.5443 40.1824 12.6965 40.0809 12.7155C40.0809 12.7155 39.6179 13.0834 39.6243 13.096C38.914 15.0557 39.8399 16.9139 40.6453 17.7003C41.1527 18.1949 41.4571 18.6008 41.2478 19.0194C41.0449 19.4253 40.398 19.5077 40.398 19.5077C40.398 19.5077 40.5629 19.9073 40.9307 20.1102C41.2732 20.3005 41.6854 20.3322 41.9708 20.3258C41.9708 20.3258 43.1377 21.8162 46.0359 21.702L47.6468 21.6386L49.2576 21.5752C52.1559 21.461 53.2023 19.8819 53.2023 19.8819C53.4877 19.8629 53.8936 19.7994 54.217 19.5838C54.5721 19.3492 54.7053 18.9369 54.7053 18.9369C54.7053 18.9369 54.0585 18.9116 53.8238 18.5184Z" fill="#543930"/>
<path d="M47.6468 21.6449L47.577 19.9453L52.7076 19.3301L53.2023 19.8882C53.2023 19.8882 52.1559 21.4674 49.2576 21.5815L47.6468 21.6449Z" fill="url(#paint11_radial_92_77)"/>
<path d="M53.1579 19.1462C52.3398 18.0047 54.0331 17.5037 54.0331 17.5037C53.7477 17.8842 53.6272 18.214 53.8175 18.5247C54.0522 18.9116 54.7054 18.9433 54.7054 18.9433C54.7054 18.9433 53.8556 19.7614 53.1579 19.1462Z" fill="url(#paint12_radial_92_77)"/>
<path d="M54.9717 12.4809C55.8088 14.3137 55.0858 16.267 54.3629 17.1105C54.2614 17.2246 53.8428 17.6749 53.754 18.0237C53.754 18.0237 51.9403 15.6962 51.3695 14.3073C51.2553 14.0283 51.1475 13.7366 51.1221 13.4385C51.1031 13.2102 51.1285 12.9438 51.249 12.7409C51.4012 12.4999 54.8702 12.2906 54.8702 12.2906C54.8766 12.2906 54.9717 12.4809 54.9717 12.4809Z" fill="url(#paint13_radial_92_77)"/>
<path d="M39.6243 13.096C38.933 14.9923 39.8145 16.8822 40.6009 17.6622C40.7087 17.77 41.1654 18.1822 41.2795 18.5247C41.2795 18.5247 42.903 16.0577 43.3597 14.6308C43.4484 14.3454 43.5372 14.0473 43.5372 13.7429C43.5372 13.5146 43.4928 13.2482 43.3533 13.058C43.1821 12.8297 42.9982 12.8994 42.7255 12.9121C42.2054 12.9311 39.9287 12.8931 39.7511 12.8994C39.7511 12.8931 39.6243 13.096 39.6243 13.096Z" fill="url(#paint14_radial_92_77)"/>
<path d="M47.6532 21.6449L47.5834 19.9453L42.4211 19.7424L41.9771 20.3385C41.9771 20.3385 43.1441 21.8289 46.0423 21.7147L47.6532 21.6449Z" fill="url(#paint15_radial_92_77)"/>
<path d="M41.9581 19.5902C42.6811 18.3852 40.9561 18.0174 40.9561 18.0174C41.2669 18.3725 41.4127 18.6896 41.2542 19.0194C41.0512 19.4253 40.4044 19.5077 40.4044 19.5077C40.4044 19.5077 41.3176 20.2624 41.9581 19.5902Z" fill="url(#paint16_radial_92_77)"/>
<path d="M47.5707 19.8375L45.5286 19.8946L45.5856 21.4801C45.5856 23.4841 47.7165 24.3339 47.7165 24.3339C47.7165 24.3339 49.6635 23.2875 49.6635 21.4484L49.6064 19.7868L47.5707 19.8375Z" fill="#E59600"/>
<path d="M52.2764 13.6288L50.9573 13.6668L43.8163 13.8634L42.4972 13.9015C41.4444 13.9332 40.6073 14.8718 40.639 15.9943C40.6707 17.1168 41.5586 18.011 42.6113 17.9857L43.9304 17.9476L51.0714 17.751L52.3906 17.713C53.4433 17.6812 54.2804 16.7426 54.2487 15.6201C54.217 14.4976 53.3292 13.6034 52.2764 13.6288Z" fill="#E59600"/>
<path d="M47.1711 6.54484C44.0573 6.62728 41.2668 10.0392 41.4 14.8274C41.5332 19.5902 44.5646 21.8669 47.5897 21.7845C50.6148 21.702 53.5194 19.2667 53.3926 14.4976C53.253 9.70945 50.2787 6.46239 47.1711 6.54484Z" fill="#FFCA28"/>
<path d="M44.5135 16.4316C45.0001 16.4184 45.3835 15.9989 45.3697 15.4947C45.356 14.9905 44.9503 14.5926 44.4636 14.6059C43.977 14.6191 43.5936 15.0386 43.6074 15.5428C43.6211 16.047 44.0268 16.4449 44.5135 16.4316Z" fill="#404040"/>
<path d="M50.3923 16.2668C50.8789 16.2535 51.2623 15.834 51.2485 15.3298C51.2348 14.8256 50.8291 14.4277 50.3424 14.441C49.8557 14.4543 49.4724 14.8737 49.4861 15.3779C49.4999 15.8821 49.9056 16.28 50.3923 16.2668Z" fill="#404040"/>
<path d="M48.9849 18.6579C48.4269 19.0131 46.556 19.0638 45.9789 18.7404C45.6491 18.5564 45.3193 18.8609 45.4652 19.1526C45.6047 19.438 46.6448 20.0912 47.5263 20.0658C48.4078 20.0404 49.3972 19.3365 49.5177 19.0384C49.6445 18.7467 49.3084 18.455 48.9849 18.6579Z" fill="#795548"/>
<path d="M48.0463 17.0407C48.0281 17.0335 48.0088 17.0292 47.9893 17.028L46.7209 17.0661C46.7018 17.0661 46.6828 17.0724 46.6638 17.0851C46.5496 17.1358 46.4926 17.2563 46.5496 17.3832C46.6067 17.51 46.8667 17.8588 47.3741 17.8398C47.8814 17.8271 48.1224 17.4656 48.1732 17.3388C48.2239 17.1992 48.1605 17.0788 48.0463 17.0407Z" fill="#E59600"/>
<path d="M45.795 13.819C45.6237 13.6034 45.2242 13.2863 44.4695 13.3053C43.7148 13.3243 43.3343 13.6605 43.1758 13.8888C43.106 13.9902 43.125 14.1044 43.1821 14.1678C43.2328 14.2312 43.3724 14.2883 43.5309 14.2312C43.6894 14.1742 43.9875 14.0093 44.4949 13.9902C45.0022 13.9776 45.313 14.1298 45.4715 14.1805C45.6301 14.2312 45.7696 14.1678 45.814 14.0981C45.8402 14.0553 45.8525 14.0055 45.8491 13.9555C45.8457 13.9055 45.8268 13.8578 45.795 13.819Z" fill="#6D4C41"/>
<path d="M51.6802 13.6605C51.509 13.4449 51.1095 13.1278 50.3548 13.1468C49.6001 13.1658 49.2196 13.5019 49.061 13.7302C48.9913 13.8317 49.0103 13.9459 49.0674 14.0093C49.1181 14.0727 49.2576 14.1298 49.4162 14.0727C49.5747 14.0156 49.8728 13.8507 50.3802 13.8317C50.8875 13.819 51.1983 13.9712 51.3568 14.022C51.5154 14.0727 51.6549 14.0093 51.6993 13.9395C51.7373 13.8698 51.7563 13.7556 51.6802 13.6605Z" fill="#6D4C41"/>
<path d="M54.3566 8.62501C53.8873 7.97814 52.8662 7.12198 51.9847 7.10296C51.8071 6.25948 50.8685 5.57456 49.9806 5.32722C47.5644 4.66766 46.0487 5.57456 45.2369 6.06288C45.0657 6.16435 43.9748 6.83025 43.1758 6.41803C42.6748 6.15801 42.6557 5.40332 42.6557 5.40332C42.6557 5.40332 41.14 6.0502 41.7361 7.66104C41.2098 7.70544 40.5248 7.95277 40.1887 8.70746C39.7892 9.60801 39.9731 10.3373 40.1126 10.6861C39.675 11.092 39.136 11.9355 39.5672 12.9819C39.897 13.7746 41.0893 14.0917 41.0893 14.0917C41.0639 15.5377 41.3683 16.4129 41.5269 16.768C41.5522 16.8314 41.641 16.8188 41.66 16.7553C41.8123 16.0324 42.3196 13.521 42.2435 13.0834C42.2435 13.0834 44.2729 12.5951 46.1628 11.0857C46.5497 10.7749 46.9682 10.5086 47.4185 10.312C49.8284 9.24018 50.4055 10.8827 50.4055 10.8827C50.4055 10.8827 52.0861 10.4895 52.695 12.8234C52.9233 13.6985 53.1072 15.1064 53.2594 16.0894C53.2721 16.1592 53.3672 16.1719 53.3926 16.1021C53.5511 15.7026 53.8619 14.9098 53.9126 14.1108C53.9316 13.8317 54.6673 13.4322 54.9464 12.2209C55.2888 10.61 54.699 9.09432 54.3566 8.62501Z" fill="#543930"/>
<path d="M53.8809 14.1235C53.8999 13.8444 54.6356 13.4449 54.9146 12.2336C54.9463 12.1067 54.9653 11.9736 54.9907 11.8404C55.1937 10.3691 54.6673 9.04994 54.3565 8.62503C53.9253 8.02889 53.0184 7.25518 52.1876 7.122C52.1178 7.11566 52.0481 7.10931 51.9783 7.10931C51.9783 7.10931 52.0544 7.49617 51.9085 7.80692C51.7246 8.21281 51.3124 8.32696 51.3124 8.32696C53.5574 10.4008 53.475 12.2082 53.8809 14.1235Z" fill="url(#paint17_radial_92_77)"/>
<path d="M45.7442 5.77115C45.5476 5.87262 45.3827 5.97409 45.2305 6.06288C45.0593 6.16435 43.9685 6.83025 43.1694 6.41803C42.6747 6.16435 42.6494 5.43503 42.6494 5.40332C42.4401 5.69505 41.8503 7.74349 43.8163 7.80056C44.6661 7.82593 45.1544 7.0649 45.4398 6.43071C45.5349 6.19606 45.6998 5.85994 45.7442 5.77115Z" fill="url(#paint18_radial_92_77)"/>
<path d="M49.7269 5.26379C51.0587 5.56821 51.731 6.21508 51.9783 7.10295C52.0544 7.36297 52.2256 9.81094 47.4312 7.21076C45.6491 6.24045 46.0994 5.57455 46.296 5.4921C47.0887 5.17501 48.2366 4.92133 49.7269 5.26379Z" fill="url(#paint19_radial_92_77)"/>
<path d="M42.643 5.40332C42.643 5.40332 42.6367 5.40332 42.6304 5.40966C42.4655 5.48576 41.1717 6.15167 41.7235 7.6547L43.1314 7.82593C41.844 6.62097 42.6494 5.40332 42.643 5.40332Z" fill="url(#paint20_radial_92_77)"/>
<path d="M42.5986 7.76251L41.7298 7.66104C41.6981 7.66104 41.5776 7.68007 41.5205 7.68641C41.0385 7.7752 40.4677 8.0479 40.1887 8.70746C39.8843 9.41775 39.916 10.0139 40.0238 10.4071C40.0555 10.5403 40.1189 10.6861 40.1189 10.6861C40.1189 10.6861 40.5312 10.2612 41.5522 10.1978L42.5986 7.76251Z" fill="url(#paint21_radial_92_77)"/>
<path d="M40.0619 10.7242C39.6496 11.1174 39.1106 11.9862 39.5735 13.02C39.9223 13.8 41.0766 14.0981 41.0766 14.0981C41.0766 14.0981 41.3049 14.1615 41.4254 14.1552L41.5332 10.1978C40.9878 10.2168 40.4677 10.4071 40.138 10.6544C40.1443 10.6544 40.0619 10.7179 40.0619 10.7242Z" fill="url(#paint22_radial_92_77)"/>
<path d="M72.7338 38V29.5574H76.0646C76.7022 29.5574 77.2464 29.6715 77.6971 29.8996C78.1505 30.125 78.4954 30.4451 78.7318 30.8601C78.9709 31.2723 79.0904 31.7574 79.0904 32.3153C79.0904 32.8759 78.9695 33.3582 78.7277 33.7622C78.4858 34.1635 78.1354 34.4713 77.6765 34.6856C77.2203 34.9 76.6679 35.0072 76.0193 35.0072H73.7891V33.5726H75.7307C76.0715 33.5726 76.3546 33.5259 76.5799 33.4324C76.8053 33.339 76.9729 33.1988 77.0828 33.012C77.1955 32.8251 77.2519 32.5929 77.2519 32.3153C77.2519 32.035 77.1955 31.7986 77.0828 31.6062C76.9729 31.4139 76.8039 31.2682 76.5758 31.1693C76.3504 31.0676 76.066 31.0168 75.7225 31.0168H74.5188V38H72.7338ZM77.2931 34.158L79.3914 38H77.4209L75.368 34.158H77.2931ZM83.1025 38.1237C82.4512 38.1237 81.8905 37.9918 81.4206 37.7279C80.9534 37.4613 80.5934 37.0848 80.3405 36.5984C80.0877 36.1092 79.9613 35.5307 79.9613 34.8629C79.9613 34.2116 80.0877 33.6399 80.3405 33.148C80.5934 32.6561 80.9493 32.2727 81.4082 31.9979C81.8699 31.723 82.4113 31.5856 83.0324 31.5856C83.4501 31.5856 83.839 31.653 84.199 31.7876C84.5618 31.9195 84.8778 32.1188 85.1472 32.3854C85.4192 32.652 85.6309 32.9872 85.782 33.3912C85.9332 33.7925 86.0087 34.2624 86.0087 34.8011V35.2834H80.6621V34.1951H84.3557C84.3557 33.9422 84.3007 33.7183 84.1908 33.5231C84.0809 33.328 83.9283 33.1755 83.7332 33.0656C83.5408 32.9529 83.3169 32.8965 83.0613 32.8965C82.7947 32.8965 82.5583 32.9584 82.3522 33.082C82.1489 33.203 81.9895 33.3665 81.874 33.5726C81.7586 33.776 81.6995 34.0027 81.6968 34.2528V35.2875C81.6968 35.6008 81.7545 35.8715 81.8699 36.0996C81.9881 36.3277 82.1544 36.5036 82.3687 36.6273C82.5831 36.7509 82.8373 36.8128 83.1314 36.8128C83.3265 36.8128 83.5051 36.7853 83.6673 36.7303C83.8294 36.6754 83.9682 36.5929 84.0836 36.483C84.199 36.373 84.287 36.2384 84.3474 36.079L85.9716 36.1862C85.8892 36.5764 85.7202 36.9172 85.4646 37.2085C85.2118 37.4971 84.8847 37.7224 84.4835 37.8846C84.085 38.044 83.6247 38.1237 83.1025 38.1237ZM92.4231 33.4737L90.8154 33.5726C90.7879 33.4352 90.7288 33.3115 90.6381 33.2016C90.5474 33.0889 90.4279 32.9996 90.2795 32.9336C90.1338 32.8649 89.9593 32.8306 89.756 32.8306C89.4839 32.8306 89.2544 32.8883 89.0675 33.0037C88.8806 33.1164 88.7872 33.2676 88.7872 33.4572C88.7872 33.6083 88.8477 33.7361 88.9686 33.8406C89.0895 33.945 89.297 34.0288 89.5911 34.092L90.7371 34.3229C91.3527 34.4493 91.8116 34.6527 92.1139 34.933C92.4162 35.2133 92.5674 35.5816 92.5674 36.0378C92.5674 36.4527 92.4451 36.8169 92.2005 37.1302C91.9587 37.4435 91.6261 37.6881 91.2029 37.864C90.7824 38.0371 90.2974 38.1237 89.7477 38.1237C88.9095 38.1237 88.2417 37.9492 87.7442 37.6001C87.2496 37.2484 86.9596 36.7702 86.8744 36.1656L88.6017 36.0749C88.6539 36.3305 88.7803 36.5256 88.981 36.6602C89.1816 36.7922 89.4385 36.8581 89.7518 36.8581C90.0596 36.8581 90.307 36.799 90.4939 36.6809C90.6835 36.5599 90.7797 36.4047 90.7824 36.215C90.7797 36.0556 90.7123 35.9251 90.5804 35.8234C90.4485 35.719 90.2451 35.6393 89.9703 35.5843L88.8738 35.3658C88.2554 35.2422 87.7951 35.0278 87.4928 34.7227C87.1932 34.4177 87.0435 34.0288 87.0435 33.5561C87.0435 33.1494 87.1534 32.799 87.3732 32.5049C87.5958 32.2109 87.9078 31.9841 88.309 31.8247C88.713 31.6653 89.1857 31.5856 89.7271 31.5856C90.5268 31.5856 91.1562 31.7547 91.6151 32.0927C92.0768 32.4307 92.3462 32.891 92.4231 33.4737ZM97.0412 31.6681V32.9872H93.228V31.6681H97.0412ZM94.0937 30.1511H95.8498V36.0543C95.8498 36.2164 95.8745 36.3428 95.924 36.4335C95.9735 36.5215 96.0422 36.5833 96.1301 36.619C96.2208 36.6547 96.3252 36.6726 96.4434 36.6726C96.5259 36.6726 96.6083 36.6657 96.6908 36.652C96.7732 36.6355 96.8364 36.6231 96.8804 36.6149L97.1566 37.9217C97.0686 37.9492 96.945 37.9808 96.7856 38.0165C96.6262 38.055 96.4324 38.0783 96.2043 38.0866C95.7811 38.1031 95.4101 38.0467 95.0913 37.9176C94.7752 37.7884 94.5293 37.5878 94.3534 37.3157C94.1775 37.0436 94.0909 36.7001 94.0937 36.2851V30.1511ZM102.36 38H100.447L103.362 29.5574H105.662L108.572 38H106.66L104.545 31.4867H104.479L102.36 38ZM102.24 34.6815H106.759V36.0749H102.24V34.6815ZM114.677 33.4737L113.069 33.5726C113.041 33.4352 112.982 33.3115 112.892 33.2016C112.801 33.0889 112.681 32.9996 112.533 32.9336C112.387 32.8649 112.213 32.8306 112.009 32.8306C111.737 32.8306 111.508 32.8883 111.321 33.0037C111.134 33.1164 111.041 33.2676 111.041 33.4572C111.041 33.6083 111.101 33.7361 111.222 33.8406C111.343 33.945 111.55 34.0288 111.844 34.092L112.99 34.3229C113.606 34.4493 114.065 34.6527 114.367 34.933C114.67 35.2133 114.821 35.5816 114.821 36.0378C114.821 36.4527 114.699 36.8169 114.454 37.1302C114.212 37.4435 113.88 37.6881 113.456 37.864C113.036 38.0371 112.551 38.1237 112.001 38.1237C111.163 38.1237 110.495 37.9492 109.998 37.6001C109.503 37.2484 109.213 36.7702 109.128 36.1656L110.855 36.0749C110.907 36.3305 111.034 36.5256 111.234 36.6602C111.435 36.7922 111.692 36.8581 112.005 36.8581C112.313 36.8581 112.56 36.799 112.747 36.6809C112.937 36.5599 113.033 36.4047 113.036 36.215C113.033 36.0556 112.966 35.9251 112.834 35.8234C112.702 35.719 112.499 35.6393 112.224 35.5843L111.127 35.3658C110.509 35.2422 110.049 35.0278 109.746 34.7227C109.447 34.4177 109.297 34.0288 109.297 33.5561C109.297 33.1494 109.407 32.799 109.627 32.5049C109.849 32.2109 110.161 31.9841 110.562 31.8247C110.966 31.6653 111.439 31.5856 111.981 31.5856C112.78 31.5856 113.41 31.7547 113.869 32.0927C114.33 32.4307 114.6 32.891 114.677 33.4737ZM121.195 33.4737L119.587 33.5726C119.56 33.4352 119.501 33.3115 119.41 33.2016C119.319 33.0889 119.2 32.9996 119.051 32.9336C118.906 32.8649 118.731 32.8306 118.528 32.8306C118.256 32.8306 118.026 32.8883 117.839 33.0037C117.653 33.1164 117.559 33.2676 117.559 33.4572C117.559 33.6083 117.62 33.7361 117.74 33.8406C117.861 33.945 118.069 34.0288 118.363 34.092L119.509 34.3229C120.125 34.4493 120.584 34.6527 120.886 34.933C121.188 35.2133 121.339 35.5816 121.339 36.0378C121.339 36.4527 121.217 36.8169 120.972 37.1302C120.731 37.4435 120.398 37.6881 119.975 37.864C119.554 38.0371 119.069 38.1237 118.52 38.1237C117.681 38.1237 117.014 37.9492 116.516 37.6001C116.021 37.2484 115.732 36.7702 115.646 36.1656L117.374 36.0749C117.426 36.3305 117.552 36.5256 117.753 36.6602C117.953 36.7922 118.21 36.8581 118.524 36.8581C118.832 36.8581 119.079 36.799 119.266 36.6809C119.455 36.5599 119.552 36.4047 119.554 36.215C119.552 36.0556 119.484 35.9251 119.352 35.8234C119.22 35.719 119.017 35.6393 118.742 35.5843L117.646 35.3658C117.027 35.2422 116.567 35.0278 116.265 34.7227C115.965 34.4177 115.815 34.0288 115.815 33.5561C115.815 33.1494 115.925 32.799 116.145 32.5049C116.368 32.2109 116.68 31.9841 117.081 31.8247C117.485 31.6653 117.958 31.5856 118.499 31.5856C119.299 31.5856 119.928 31.7547 120.387 32.0927C120.849 32.4307 121.118 32.891 121.195 33.4737ZM126.506 35.304V31.6681H128.262V38H126.576V36.8499H126.51C126.367 37.2209 126.129 37.5191 125.797 37.7444C125.467 37.9698 125.064 38.0824 124.589 38.0824C124.165 38.0824 123.793 37.9863 123.472 37.7939C123.15 37.6015 122.899 37.3281 122.717 36.9735C122.539 36.619 122.448 36.1944 122.445 35.6997V31.6681H124.201V35.3864C124.204 35.7602 124.304 36.0556 124.502 36.2727C124.7 36.4898 124.965 36.5984 125.298 36.5984C125.509 36.5984 125.707 36.5503 125.891 36.4541C126.075 36.3552 126.224 36.2095 126.337 36.0172C126.452 35.8248 126.508 35.5871 126.506 35.304ZM129.666 38V31.6681H131.369V32.7729H131.435C131.55 32.3799 131.744 32.0831 132.016 31.8824C132.288 31.6791 132.601 31.5774 132.956 31.5774C133.044 31.5774 133.139 31.5829 133.24 31.5939C133.342 31.6049 133.431 31.62 133.508 31.6392V33.1975C133.426 33.1727 133.312 33.1508 133.166 33.1315C133.021 33.1123 132.887 33.1027 132.766 33.1027C132.508 33.1027 132.277 33.159 132.074 33.2717C131.873 33.3816 131.714 33.5355 131.596 33.7334C131.48 33.9312 131.423 34.1594 131.423 34.4177V38H129.666ZM137.007 38.1237C136.356 38.1237 135.795 37.9918 135.325 37.7279C134.858 37.4613 134.498 37.0848 134.245 36.5984C133.992 36.1092 133.866 35.5307 133.866 34.8629C133.866 34.2116 133.992 33.6399 134.245 33.148C134.498 32.6561 134.854 32.2727 135.313 31.9979C135.775 31.723 136.316 31.5856 136.937 31.5856C137.355 31.5856 137.744 31.653 138.104 31.7876C138.467 31.9195 138.783 32.1188 139.052 32.3854C139.324 32.652 139.536 32.9872 139.687 33.3912C139.838 33.7925 139.914 34.2624 139.914 34.8011V35.2834H134.567V34.1951H138.26C138.26 33.9422 138.205 33.7183 138.096 33.5231C137.986 33.328 137.833 33.1755 137.638 33.0656C137.446 32.9529 137.222 32.8965 136.966 32.8965C136.699 32.8965 136.463 32.9584 136.257 33.082C136.054 33.203 135.894 33.3665 135.779 33.5726C135.663 33.776 135.604 34.0027 135.602 34.2528V35.2875C135.602 35.6008 135.659 35.8715 135.775 36.0996C135.893 36.3277 136.059 36.5036 136.273 36.6273C136.488 36.7509 136.742 36.8128 137.036 36.8128C137.231 36.8128 137.41 36.7853 137.572 36.7303C137.734 36.6754 137.873 36.5929 137.988 36.483C138.104 36.373 138.192 36.2384 138.252 36.079L139.876 36.1862C139.794 36.5764 139.625 36.9172 139.369 37.2085C139.117 37.4971 138.789 37.7224 138.388 37.8846C137.99 38.044 137.529 38.1237 137.007 38.1237ZM143.393 38.1031C142.912 38.1031 142.476 37.9794 142.086 37.732C141.698 37.482 141.391 37.1151 141.163 36.6314C140.937 36.1449 140.825 35.5486 140.825 34.8423C140.825 34.1168 140.941 33.5135 141.175 33.0326C141.409 32.5489 141.719 32.1875 142.107 31.9484C142.497 31.7066 142.924 31.5856 143.389 31.5856C143.743 31.5856 144.039 31.6461 144.275 31.767C144.514 31.8852 144.706 32.0336 144.852 32.2122C145 32.3881 145.113 32.5613 145.19 32.7316H145.244V29.5574H146.996V38H145.264V36.9859H145.19C145.108 37.1618 144.991 37.3363 144.84 37.5094C144.691 37.6798 144.498 37.8214 144.258 37.934C144.022 38.0467 143.734 38.1031 143.393 38.1031ZM143.949 36.7056C144.232 36.7056 144.471 36.6286 144.667 36.4747C144.864 36.3181 145.016 36.0996 145.12 35.8193C145.227 35.539 145.281 35.2105 145.281 34.834C145.281 34.4575 145.229 34.1305 145.124 33.8529C145.02 33.5754 144.869 33.361 144.671 33.2098C144.473 33.0587 144.232 32.9831 143.949 32.9831C143.661 32.9831 143.417 33.0614 143.22 33.2181C143.022 33.3747 142.872 33.5918 142.77 33.8694C142.669 34.147 142.618 34.4685 142.618 34.834C142.618 35.2023 142.669 35.528 142.77 35.811C142.875 36.0914 143.024 36.3112 143.22 36.4706C143.417 36.6273 143.661 36.7056 143.949 36.7056ZM72.7338 52V43.5574H74.5188V47.0408H78.1423V43.5574H79.9231V52H78.1423V48.5125H74.5188V52H72.7338ZM81.3948 52V43.5574H87.0836V45.0291H83.1798V47.0408H86.791V48.5125H83.1798V50.5283H87.1001V52H81.3948ZM88.5028 52V43.5574H90.2877V50.5283H93.9071V52H88.5028ZM95.0892 52V43.5574H98.4201C99.0604 43.5574 99.6059 43.6797 100.057 43.9243C100.507 44.1662 100.851 44.5028 101.087 44.9343C101.326 45.363 101.446 45.8577 101.446 46.4184C101.446 46.979 101.325 47.4737 101.083 47.9024C100.841 48.3311 100.491 48.665 100.032 48.9041C99.5757 49.1432 99.0233 49.2628 98.3747 49.2628H96.2517V47.8323H98.0862C98.4297 47.8323 98.7128 47.7732 98.9354 47.6551C99.1607 47.5341 99.3284 47.3679 99.4383 47.1562C99.551 46.9419 99.6073 46.6959 99.6073 46.4184C99.6073 46.138 99.551 45.8934 99.4383 45.6846C99.3284 45.473 99.1607 45.3094 98.9354 45.194C98.71 45.0758 98.4242 45.0168 98.0779 45.0168H96.8742V52H95.0892ZM107.077 43.5574V52H105.292V43.5574H107.077ZM113.125 45.9855C113.093 45.653 112.951 45.3946 112.701 45.2105C112.451 45.0264 112.111 44.9343 111.683 44.9343C111.391 44.9343 111.145 44.9755 110.945 45.058C110.744 45.1377 110.59 45.249 110.483 45.3919C110.379 45.5348 110.326 45.6969 110.326 45.8783C110.321 46.0295 110.353 46.1614 110.421 46.2741C110.493 46.3867 110.59 46.4843 110.714 46.5668C110.838 46.6465 110.981 46.7165 111.143 46.777C111.305 46.8347 111.478 46.8842 111.662 46.9254L112.421 47.1068C112.789 47.1892 113.127 47.2992 113.435 47.4366C113.742 47.574 114.009 47.743 114.234 47.9436C114.46 48.1442 114.634 48.3806 114.758 48.6527C114.884 48.9247 114.949 49.2367 114.952 49.5884C114.949 50.1051 114.817 50.5531 114.556 50.9323C114.298 51.3088 113.924 51.6015 113.435 51.8104C112.948 52.0165 112.361 52.1195 111.674 52.1195C110.993 52.1195 110.399 52.0151 109.894 51.8062C109.391 51.5974 108.998 51.2882 108.715 50.8787C108.434 50.4665 108.287 49.9567 108.274 49.3493H110.001C110.02 49.6324 110.101 49.8687 110.244 50.0584C110.39 50.2453 110.583 50.3868 110.825 50.483C111.07 50.5764 111.346 50.6231 111.654 50.6231C111.956 50.6231 112.219 50.5792 112.441 50.4912C112.667 50.4033 112.841 50.281 112.965 50.1243C113.088 49.9677 113.15 49.7877 113.15 49.5843C113.15 49.3947 113.094 49.2353 112.981 49.1061C112.871 48.977 112.709 48.867 112.495 48.7763C112.283 48.6856 112.023 48.6032 111.716 48.529L110.796 48.2981C110.085 48.125 109.523 47.8543 109.11 47.486C108.698 47.1178 108.493 46.6217 108.496 45.9979C108.493 45.4867 108.629 45.0401 108.904 44.6581C109.182 44.2761 109.562 43.9779 110.046 43.7636C110.53 43.5492 111.079 43.442 111.695 43.442C112.322 43.442 112.869 43.5492 113.336 43.7636C113.806 43.9779 114.171 44.2761 114.432 44.6581C114.693 45.0401 114.828 45.4826 114.836 45.9855H113.125ZM126.597 47.7787C126.597 48.6994 126.423 49.4826 126.074 50.1285C125.727 50.7743 125.255 51.2676 124.656 51.6084C124.059 51.9464 123.389 52.1154 122.644 52.1154C121.894 52.1154 121.22 51.945 120.624 51.6043C120.028 51.2635 119.556 50.7702 119.21 50.1243C118.864 49.4785 118.691 48.6966 118.691 47.7787C118.691 46.8581 118.864 46.0748 119.21 45.429C119.556 44.7832 120.028 44.2912 120.624 43.9532C121.22 43.6124 121.894 43.442 122.644 43.442C123.389 43.442 124.059 43.6124 124.656 43.9532C125.255 44.2912 125.727 44.7832 126.074 45.429C126.423 46.0748 126.597 46.8581 126.597 47.7787ZM124.788 47.7787C124.788 47.1824 124.698 46.6794 124.52 46.2699C124.344 45.8605 124.095 45.5499 123.774 45.3383C123.452 45.1267 123.075 45.0209 122.644 45.0209C122.213 45.0209 121.836 45.1267 121.514 45.3383C121.193 45.5499 120.943 45.8605 120.764 46.2699C120.588 46.6794 120.5 47.1824 120.5 47.7787C120.5 48.3751 120.588 48.878 120.764 49.2875C120.943 49.697 121.193 50.0075 121.514 50.2191C121.836 50.4308 122.213 50.5366 122.644 50.5366C123.075 50.5366 123.452 50.4308 123.774 50.2191C124.095 50.0075 124.344 49.697 124.52 49.2875C124.698 48.878 124.788 48.3751 124.788 47.7787ZM134.981 43.5574V52H133.439L129.766 46.6863H129.705V52H127.92V43.5574H129.486L133.13 48.867H133.204V43.5574H134.981ZM138.821 45.0291V43.5574H145.755V45.0291H143.17V52H141.406V45.0291H138.821ZM146.897 52V43.5574H148.682V47.0408H152.305V43.5574H154.086V52H152.305V48.5125H148.682V52H146.897ZM155.558 52V43.5574H161.247V45.0291H157.343V47.0408H160.954V48.5125H157.343V50.5283H161.263V52H155.558ZM167.253 52L164.837 43.5574H166.787L168.185 49.4235H168.255L169.796 43.5574H171.466L173.004 49.4359H173.078L174.475 43.5574H176.425L174.009 52H172.27L170.662 46.4802H170.596L168.992 52H167.253ZM177.985 52H176.073L178.987 43.5574H181.287L184.198 52H182.285L180.17 45.4867H180.104L177.985 52ZM177.866 48.6815H182.384V50.0749H177.866V48.6815ZM183.858 43.5574H185.857L187.782 47.1934H187.865L189.79 43.5574H191.789L188.71 49.0154V52H186.937V49.0154L183.858 43.5574ZM194.829 43.5574L194.668 49.4689H193.16L192.995 43.5574H194.829ZM193.914 52.1072C193.642 52.1072 193.408 52.011 193.213 51.8186C193.018 51.6235 192.922 51.3899 192.925 51.1178C192.922 50.8485 193.018 50.6176 193.213 50.4253C193.408 50.2329 193.642 50.1367 193.914 50.1367C194.175 50.1367 194.405 50.2329 194.603 50.4253C194.8 50.6176 194.901 50.8485 194.903 51.1178C194.901 51.2992 194.853 51.4655 194.759 51.6166C194.668 51.765 194.549 51.8846 194.401 51.9753C194.252 52.0632 194.09 52.1072 193.914 52.1072Z" fill="#00BE23"/>
<defs>
<linearGradient id="paint0_linear_92_77" x1="50.4607" y1="31.0995" x2="32.3983" y2="55.2926" gradientUnits="userSpaceOnUse">
<stop stop-color="#A52714"/>
<stop offset="0.529" stop-color="#D23F31"/>
<stop offset="1" stop-color="#ED4132"/>
</linearGradient>
<radialGradient id="paint1_radial_92_77" cx="0" cy="0" r="1" gradientUnits="userSpaceOnUse" gradientTransform="translate(47.4848 40.1904) rotate(20.5788) scale(11.7828 22.8329)">
<stop stop-color="#212121"/>
<stop offset="0.999" stop-color="#212121" stop-opacity="0"/>
</radialGradient>
<linearGradient id="paint2_linear_92_77" x1="28.1619" y1="34.9452" x2="37.4801" y2="51.0334" gradientUnits="userSpaceOnUse">
<stop stop-color="#212121"/>
<stop offset="0.999" stop-color="#212121" stop-opacity="0"/>
</linearGradient>
<linearGradient id="paint3_linear_92_77" x1="48.203" y1="26.2682" x2="48.0939" y2="38.7478" gradientUnits="userSpaceOnUse">
<stop stop-color="#42A5F5"/>
<stop offset="1" stop-color="#1E88E5"/>
</linearGradient>
<linearGradient id="paint4_linear_92_77" x1="31.9416" y1="33.375" x2="27.7826" y2="24.3485" gradientUnits="userSpaceOnUse">
<stop stop-color="#A52714"/>
<stop offset="0.529" stop-color="#D23F31"/>
<stop offset="1" stop-color="#DB4437"/>
</linearGradient>
<linearGradient id="paint5_linear_92_77" x1="34.9623" y1="53.2898" x2="31.7914" y2="58.2048" gradientUnits="userSpaceOnUse">
<stop offset="0.001" stop-color="#851F10"/>
<stop offset="0.841" stop-color="#A52714"/>
</linearGradient>
<linearGradient id="paint6_linear_92_77" x1="44.2602" y1="45.7081" x2="38.458" y2="58.735" gradientUnits="userSpaceOnUse">
<stop stop-color="#42A5F5"/>
<stop offset="1" stop-color="#1E88E5"/>
</linearGradient>
<linearGradient id="paint7_linear_92_77" x1="39.7646" y1="39.6046" x2="53.4758" y2="42.6012" gradientUnits="userSpaceOnUse">
<stop stop-color="#D32F2F"/>
<stop offset="0.23" stop-color="#F44336"/>
<stop offset="0.742" stop-color="#F44336"/>
<stop offset="1" stop-color="#D32F2F"/>
</linearGradient>
<linearGradient id="paint8_linear_92_77" x1="48.9894" y1="28.3756" x2="48.9894" y2="34.6256" gradientUnits="userSpaceOnUse">
<stop stop-color="#0D47A1" stop-opacity="0"/>
<stop offset="1" stop-color="#0D47A1"/>
</linearGradient>
<linearGradient id="paint9_linear_92_77" x1="41.9188" y1="63.6582" x2="27.7674" y2="77.8095" gradientUnits="userSpaceOnUse">
<stop stop-color="#A52714"/>
<stop offset="0.529" stop-color="#D23F31"/>
<stop offset="1" stop-color="#ED4132"/>
</linearGradient>
<linearGradient id="paint10_linear_92_77" x1="62.3841" y1="15.1673" x2="53.6266" y2="1.9216" gradientUnits="userSpaceOnUse">
<stop stop-color="#A52714"/>
<stop offset="0.529" stop-color="#D23F31"/>
<stop offset="1" stop-color="#DB4437"/>
</linearGradient>
<radialGradient id="paint11_radial_92_77" cx="0" cy="0" r="1" gradientUnits="userSpaceOnUse" gradientTransform="translate(50.1781 19.0841) rotate(-2.28672) scale(4.2218 2.07372)">
<stop offset="0.728" stop-color="#6D4C41" stop-opacity="0"/>
<stop offset="1" stop-color="#6D4C41"/>
</radialGradient>
<radialGradient id="paint12_radial_92_77" cx="0" cy="0" r="1" gradientUnits="userSpaceOnUse" gradientTransform="translate(54.3087 18.2907) rotate(152.633) scale(1.24812 0.925858)">
<stop offset="0.663" stop-color="#6D4C41"/>
<stop offset="1" stop-color="#6D4C41" stop-opacity="0"/>
</radialGradient>
<radialGradient id="paint13_radial_92_77" cx="0" cy="0" r="1" gradientUnits="userSpaceOnUse" gradientTransform="translate(50.9352 14.8925) rotate(-96.5692) scale(5.48049 4.56796)">
<stop offset="0.725" stop-color="#6D4C41" stop-opacity="0"/>
<stop offset="1" stop-color="#6D4C41"/>
</radialGradient>
<radialGradient id="paint14_radial_92_77" cx="0" cy="0" r="1" gradientUnits="userSpaceOnUse" gradientTransform="translate(43.8355 15.1751) rotate(-88.0114) scale(5.48069 4.56763)">
<stop offset="0.725" stop-color="#6D4C41" stop-opacity="0"/>
<stop offset="1" stop-color="#6D4C41"/>
</radialGradient>
<radialGradient id="paint15_radial_92_77" cx="0" cy="0" r="1" gradientUnits="userSpaceOnUse" gradientTransform="translate(44.9283 19.2905) rotate(177.713) scale(4.22179 2.07372)">
<stop offset="0.728" stop-color="#6D4C41" stop-opacity="0"/>
<stop offset="1" stop-color="#6D4C41"/>
</radialGradient>
<radialGradient id="paint16_radial_92_77" cx="0" cy="0" r="1" gradientUnits="userSpaceOnUse" gradientTransform="translate(40.7506 18.8295) rotate(22.7855) scale(1.24814 0.925826)">
<stop offset="0.663" stop-color="#6D4C41"/>
<stop offset="1" stop-color="#6D4C41" stop-opacity="0"/>
</radialGradient>
<radialGradient id="paint17_radial_92_77" cx="0" cy="0" r="1" gradientUnits="userSpaceOnUse" gradientTransform="translate(50.5176 12.0156) rotate(69.7947) scale(6.42462 4.76647)">
<stop offset="0.699" stop-color="#6D4C41" stop-opacity="0"/>
<stop offset="1" stop-color="#6D4C41"/>
</radialGradient>
<radialGradient id="paint18_radial_92_77" cx="0" cy="0" r="1" gradientUnits="userSpaceOnUse" gradientTransform="translate(43.9795 5.2655) rotate(25.9117) scale(1.68447 1.99726)">
<stop offset="0.58" stop-color="#6D4C41"/>
<stop offset="1" stop-color="#6D4C41" stop-opacity="0"/>
</radialGradient>
<radialGradient id="paint19_radial_92_77" cx="0" cy="0" r="1" gradientUnits="userSpaceOnUse" gradientTransform="translate(47.8627 8.17679) rotate(-159.481) scale(5.26799 2.96019)">
<stop offset="0.699" stop-color="#6D4C41" stop-opacity="0"/>
<stop offset="1" stop-color="#6D4C41"/>
</radialGradient>
<radialGradient id="paint20_radial_92_77" cx="0" cy="0" r="1" gradientUnits="userSpaceOnUse" gradientTransform="translate(43.3641 6.82986) rotate(-2.28672) scale(1.54615 1.89138)">
<stop offset="0.702" stop-color="#6D4C41" stop-opacity="0"/>
<stop offset="1" stop-color="#6D4C41"/>
</radialGradient>
<radialGradient id="paint21_radial_92_77" cx="0" cy="0" r="1" gradientUnits="userSpaceOnUse" gradientTransform="translate(43.259 9.56079) rotate(-167.227) scale(2.89966 2.71354)">
<stop offset="0.66" stop-color="#6D4C41" stop-opacity="0"/>
<stop offset="1" stop-color="#6D4C41"/>
</radialGradient>
<radialGradient id="paint22_radial_92_77" cx="0" cy="0" r="1" gradientUnits="userSpaceOnUse" gradientTransform="translate(42.6834 12.3852) rotate(5.54355) scale(3.04404 4.27752)">
<stop offset="0.598" stop-color="#6D4C41" stop-opacity="0"/>
<stop offset="1" stop-color="#6D4C41"/>
</radialGradient>
</defs>
</svg>
